# xmcd CD database file
#
# Track frame offsets:
#	150
#	25616
#	56749
#	75342
#
# Disc length: 1343 seconds
#
# Revision: 1
# Processed by: cddbd v1.5.2PL0 Copyright (c) Steve Scherf et al.
# Submitted via: CDex 1.70beta2
#
DISCID=21053d04
DTITLE=大橋卓弥 - はじまりの歌
DYEAR=2008
DGENRE=JPop
TTITLE0=はじまりの歌
TTITLE1=少年と空
TTITLE2=そろそろいかなくちゃ
TTITLE3=はじまりの歌(Backing Track)
EXTD=YEAR: 2008
EXTT0=
EXTT1=
EXTT2=
EXTT3=
PLAYORDER=
